# MagicaVoxel @ Ephtracy

# material
mtllib zombie_enemy.mtl
usemtl palette

# normals
vn -1 0 0
vn 1 0 0
vn 0 0 1
vn 0 0 -1
vn 0 -1 0
vn 0 1 0

# texcoords
vt 0.0605469 0.5
vt 0.306641 0.5
vt 0.369141 0.5
vt 0.955078 0.5
vt 0.986328 0.5

# verts
v -3.5 1 -1
v -3.5 1 -2
v -3.5 2 1
v -3.5 2 -0
v -3.5 3 2
v -3.5 3 1
v -3.5 5 -0
v -3.5 5 -1
v -3.5 9 2
v -3.5 9 -2
v -3.5 11 2
v -3.5 11 1
v -3.5 11 -1
v -3.5 11 -2
v -3.5 13 1
v -3.5 13 -1
v -2.5 3 3
v -2.5 3 2
v -2.5 3 -0
v -2.5 3 -1
v -2.5 5 -0
v -2.5 5 -1
v -2.5 5 -2
v -2.5 5 -3
v -2.5 9 3
v -2.5 9 2
v -2.5 9 -2
v -2.5 9 -3
v -2.5 11 2
v -2.5 11 1
v -2.5 11 -1
v -2.5 11 -2
v -2.5 12 -1
v -2.5 12 -2
v -2.5 13 2
v -2.5 13 1
v -1.5 0 2
v -1.5 0 1
v -1.5 0 -1
v -1.5 0 -2
v -1.5 1 2
v -1.5 1 1
v -1.5 1 -1
v -1.5 1 -2
v -1.5 2 1
v -1.5 2 -1
v -1.5 3 2
v -1.5 3 -2
v -1.5 4 -2
v -1.5 4 -3
v -1.5 5 -2
v -1.5 5 -3
v -1.5 6 4
v -1.5 6 3
v -1.5 6 -3
v -1.5 6 -4
v -1.5 8 4
v -1.5 8 3
v -1.5 8 -3
v -1.5 8 -4
v -1.5 12 -1
v -1.5 12 -2
v -1.5 13 -1
v -1.5 13 -2
v -0.5 3 -2
v -0.5 3 -3
v -0.5 4 3
v -0.5 4 2
v -0.5 4 -2
v -0.5 4 -3
v -0.5 5 3
v -0.5 5 2
v 0.5 2 2
v 0.5 2 1
v 0.5 2 -1
v 0.5 2 -2
v 0.5 3 3
v 0.5 3 2
v 0.5 3 1
v 0.5 3 -1
v 0.5 3 -2
v 0.5 4 3
v 0.5 4 2
v 0.5 10 -1
v 0.5 10 -2
v 0.5 11 -1
v 0.5 11 -2
v 0.5 12 1
v 0.5 12 -0
v 0.5 13 1
v 0.5 13 -0
v -2.5 1 -1
v -2.5 1 -2
v -2.5 2 1
v -2.5 2 -0
v -2.5 3 1
v -2.5 3 -0
v -2.5 3 -1
v -2.5 3 -2
v -1.5 3 3
v -1.5 3 2
v -1.5 5 3
v -1.5 5 2
v -0.5 0 2
v -0.5 0 1
v -0.5 0 -1
v -0.5 0 -2
v -0.5 1 2
v -0.5 1 1
v -0.5 1 -1
v -0.5 1 -2
v -0.5 2 1
v -0.5 2 -1
v -0.5 3 2
v -0.5 3 -2
v -0.5 7 4
v -0.5 7 3
v -0.5 7 -3
v -0.5 7 -4
v -0.5 8 4
v -0.5 8 3
v -0.5 8 2
v -0.5 8 -2
v -0.5 8 -3
v -0.5 8 -4
v -0.5 9 3
v -0.5 9 2
v -0.5 9 -2
v -0.5 9 -3
v -0.5 10 -1
v -0.5 10 -2
v -0.5 11 -1
v -0.5 11 -2
v -0.5 12 1
v -0.5 12 -0
v -0.5 13 1
v -0.5 13 -0
v 0.5 3 1
v 0.5 3 -1
v 0.5 3 -2
v 0.5 3 -3
v 0.5 4 -0
v 0.5 4 -1
v 0.5 5 1
v 0.5 5 -0
v 0.5 5 -1
v 0.5 5 -2
v 0.5 5 -3
v 0.5 6 1
v 0.5 6 -0
v 0.5 7 1
v 0.5 7 -1
v 0.5 12 2
v 0.5 12 1
v 0.5 12 -1
v 0.5 12 -2
v 0.5 13 2
v 0.5 13 1
v 0.5 13 -1
v 0.5 13 -2
v 1.5 2 2
v 1.5 2 1
v 1.5 2 -1
v 1.5 2 -2
v 1.5 3 3
v 1.5 3 2
v 1.5 4 -0
v 1.5 4 -1
v 1.5 5 1
v 1.5 5 -0
v 1.5 5 -1
v 1.5 5 -2
v 1.5 5 -3
v 1.5 6 3
v 1.5 6 1
v 1.5 6 -0
v 1.5 6 -3
v 1.5 7 3
v 1.5 7 1
v 1.5 7 -1
v 1.5 7 -3
v 1.5 8 3
v 1.5 8 2
v 1.5 8 -2
v 1.5 8 -3
v 1.5 9 2
v 1.5 9 -2
v 1.5 10 2
v 1.5 10 1
v 1.5 10 -1
v 1.5 10 -2
v 1.5 11 2
v 1.5 11 1
v 1.5 11 -1
v 1.5 11 -2
v 1.5 12 2
v 1.5 12 1
v 1.5 12 -1
v 1.5 12 -2
v 1.5 13 1
v 1.5 13 -1
v 3.5 6 4
v 3.5 6 3
v 3.5 6 -3
v 3.5 6 -4
v 3.5 7 4
v 3.5 7 3
v 3.5 7 -3
v 3.5 7 -4
v -1.5 6 4
v -1.5 8 4
v -0.5 7 4
v -0.5 8 4
v 1.5 6 4
v 1.5 7 4
v 3.5 6 4
v 3.5 7 4
v -2.5 3 3
v -2.5 9 3
v -1.5 3 3
v -1.5 5 3
v -1.5 6 3
v -1.5 8 3
v -0.5 4 3
v -0.5 5 3
v -0.5 7 3
v -0.5 8 3
v -0.5 9 3
v 0.5 3 3
v 0.5 4 3
v 1.5 3 3
v 1.5 6 3
v 1.5 7 3
v 1.5 8 3
v -3.5 3 2
v -3.5 9 2
v -3.5 11 2
v -2.5 3 2
v -2.5 9 2
v -2.5 11 2
v -2.5 13 2
v -1.5 0 2
v -1.5 1 2
v -1.5 3 2
v -1.5 5 2
v -0.5 0 2
v -0.5 1 2
v -0.5 3 2
v -0.5 4 2
v -0.5 5 2
v -0.5 8 2
v -0.5 9 2
v 0.5 2 2
v 0.5 3 2
v 0.5 4 2
v 0.5 10 2
v 0.5 11 2
v 0.5 12 2
v 0.5 13 2
v 1.5 2 2
v 1.5 3 2
v 1.5 8 2
v 1.5 9 2
v 1.5 10 2
v 1.5 11 2
v 1.5 12 2
v -3.5 2 1
v -3.5 3 1
v -3.5 11 1
v -3.5 13 1
v -2.5 2 1
v -2.5 3 1
v -2.5 11 1
v -2.5 13 1
v 0.5 12 1
v 0.5 13 1
v 1.5 12 1
v 1.5 13 1
v -0.5 12 -0
v -0.5 13 -0
v 0.5 4 -0
v 0.5 5 -0
v 0.5 12 -0
v 0.5 13 -0
v 1.5 4 -0
v 1.5 5 -0
v -3.5 1 -1
v -3.5 5 -1
v -2.5 1 -1
v -2.5 3 -1
v -2.5 5 -1
v -1.5 0 -1
v -1.5 1 -1
v -1.5 2 -1
v -0.5 0 -1
v -0.5 1 -1
v -0.5 2 -1
v 0.5 2 -1
v 0.5 3 -1
v 0.5 4 -1
v 0.5 5 -1
v 0.5 7 -1
v 1.5 2 -1
v 1.5 4 -1
v 1.5 5 -1
v 1.5 7 -1
v 1.5 6 -3
v 1.5 7 -3
v 3.5 6 -3
v 3.5 7 -3
v 1.5 6 3
v 1.5 7 3
v 3.5 6 3
v 3.5 7 3
v -1.5 0 1
v -1.5 1 1
v -1.5 2 1
v -0.5 0 1
v -0.5 1 1
v -0.5 2 1
v -0.5 12 1
v -0.5 13 1
v 0.5 2 1
v 0.5 3 1
v 0.5 5 1
v 0.5 6 1
v 0.5 7 1
v 0.5 12 1
v 0.5 13 1
v 1.5 2 1
v 1.5 5 1
v 1.5 6 1
v 1.5 7 1
v -3.5 2 -0
v -3.5 5 -0
v -2.5 2 -0
v -2.5 3 -0
v -2.5 5 -0
v 0.5 5 -0
v 0.5 6 -0
v 1.5 5 -0
v 1.5 6 -0
v -3.5 11 -1
v -3.5 13 -1
v -2.5 11 -1
v -2.5 12 -1
v -1.5 12 -1
v -1.5 13 -1
v -0.5 10 -1
v -0.5 11 -1
v 0.5 10 -1
v 0.5 11 -1
v 0.5 12 -1
v 0.5 13 -1
v 1.5 12 -1
v 1.5 13 -1
v -3.5 1 -2
v -3.5 9 -2
v -3.5 11 -2
v -2.5 1 -2
v -2.5 3 -2
v -2.5 5 -2
v -2.5 9 -2
v -2.5 11 -2
v -2.5 12 -2
v -1.5 0 -2
v -1.5 1 -2
v -1.5 3 -2
v -1.5 4 -2
v -1.5 5 -2
v -1.5 12 -2
v -1.5 13 -2
v -0.5 0 -2
v -0.5 1 -2
v -0.5 3 -2
v -0.5 4 -2
v -0.5 8 -2
v -0.5 9 -2
v -0.5 10 -2
v -0.5 11 -2
v 0.5 2 -2
v 0.5 3 -2
v 0.5 5 -2
v 0.5 10 -2
v 0.5 11 -2
v 0.5 12 -2
v 0.5 13 -2
v 1.5 2 -2
v 1.5 5 -2
v 1.5 8 -2
v 1.5 9 -2
v 1.5 10 -2
v 1.5 11 -2
v 1.5 12 -2
v -2.5 5 -3
v -2.5 9 -3
v -1.5 4 -3
v -1.5 5 -3
v -1.5 6 -3
v -1.5 8 -3
v -0.5 3 -3
v -0.5 4 -3
v -0.5 7 -3
v -0.5 8 -3
v -0.5 9 -3
v 0.5 3 -3
v 0.5 5 -3
v 1.5 5 -3
v 1.5 6 -3
v 1.5 7 -3
v 1.5 8 -3
v -1.5 6 -4
v -1.5 8 -4
v -0.5 7 -4
v -0.5 8 -4
v 1.5 6 -4
v 1.5 7 -4
v 3.5 6 -4
v 3.5 7 -4
v -1.5 0 2
v -0.5 0 2
v -1.5 0 1
v -0.5 0 1
v -1.5 0 -1
v -0.5 0 -1
v -1.5 0 -2
v -0.5 0 -2
v -3.5 1 -1
v -2.5 1 -1
v -3.5 1 -2
v -2.5 1 -2
v 0.5 2 2
v 1.5 2 2
v -3.5 2 1
v -2.5 2 1
v -1.5 2 1
v -0.5 2 1
v 0.5 2 1
v 1.5 2 1
v -3.5 2 -0
v -2.5 2 -0
v -1.5 2 -1
v -0.5 2 -1
v 0.5 2 -1
v 1.5 2 -1
v 0.5 2 -2
v 1.5 2 -2
v -2.5 3 3
v -1.5 3 3
v 0.5 3 3
v 1.5 3 3
v -3.5 3 2
v -2.5 3 2
v -1.5 3 2
v -0.5 3 2
v 0.5 3 2
v 1.5 3 2
v -3.5 3 1
v -2.5 3 1
v 0.5 3 1
v -2.5 3 -0
v -2.5 3 -1
v 0.5 3 -1
v -2.5 3 -2
v -1.5 3 -2
v -0.5 3 -2
v 0.5 3 -2
v -0.5 3 -3
v 0.5 3 -3
v -0.5 4 3
v 0.5 4 3
v -0.5 4 2
v 0.5 4 2
v 0.5 4 -0
v 1.5 4 -0
v 0.5 4 -1
v 1.5 4 -1
v -1.5 4 -2
v -0.5 4 -2
v -1.5 4 -3
v -0.5 4 -3
v -1.5 5 3
v -0.5 5 3
v -1.5 5 2
v -0.5 5 2
v 0.5 5 1
v 1.5 5 1
v -3.5 5 -0
v -2.5 5 -0
v 0.5 5 -0
v 1.5 5 -0
v -3.5 5 -1
v -2.5 5 -1
v -2.5 5 -2
v -1.5 5 -2
v 0.5 5 -2
v 1.5 5 -2
v -2.5 5 -3
v -1.5 5 -3
v 0.5 5 -3
v 1.5 5 -3
v -1.5 6 4
v 1.5 6 4
v 3.5 6 4
v -1.5 6 3
v 1.5 6 3
v 3.5 6 3
v -1.5 6 -3
v 1.5 6 -3
v 3.5 6 -3
v -1.5 6 -4
v 1.5 6 -4
v 3.5 6 -4
v 0.5 7 1
v 1.5 7 1
v 0.5 7 -1
v 1.5 7 -1
v -0.5 11 -1
v 0.5 11 -1
v -0.5 11 -2
v 0.5 11 -2
v 0.5 5 -0
v 1.5 5 -0
v 0.5 5 -1
v 1.5 5 -1
v 0.5 6 1
v 1.5 6 1
v 0.5 6 -0
v 1.5 6 -0
v -0.5 7 4
v 1.5 7 4
v 3.5 7 4
v -0.5 7 3
v 1.5 7 3
v 3.5 7 3
v -0.5 7 -3
v 1.5 7 -3
v 3.5 7 -3
v -0.5 7 -4
v 1.5 7 -4
v 3.5 7 -4
v -1.5 8 4
v -0.5 8 4
v -1.5 8 3
v -0.5 8 3
v 1.5 8 3
v -0.5 8 2
v 1.5 8 2
v -0.5 8 -2
v 1.5 8 -2
v -1.5 8 -3
v -0.5 8 -3
v 1.5 8 -3
v -1.5 8 -4
v -0.5 8 -4
v -2.5 9 3
v -0.5 9 3
v -2.5 9 2
v -0.5 9 2
v -2.5 9 -2
v -0.5 9 -2
v -2.5 9 -3
v -0.5 9 -3
v -0.5 10 -1
v 0.5 10 -1
v -0.5 10 -2
v 0.5 10 -2
v -3.5 11 2
v -2.5 11 2
v -3.5 11 1
v -2.5 11 1
v -3.5 11 -1
v -2.5 11 -1
v -3.5 11 -2
v -2.5 11 -2
v 0.5 12 2
v 1.5 12 2
v -0.5 12 1
v 0.5 12 1
v 1.5 12 1
v -0.5 12 -0
v 0.5 12 -0
v -2.5 12 -1
v -1.5 12 -1
v 0.5 12 -1
v 1.5 12 -1
v -2.5 12 -2
v -1.5 12 -2
v 0.5 12 -2
v 1.5 12 -2
v -2.5 13 2
v 0.5 13 2
v -3.5 13 1
v -2.5 13 1
v -0.5 13 1
v 0.5 13 1
v 1.5 13 1
v -0.5 13 -0
v 0.5 13 -0
v -3.5 13 -1
v -1.5 13 -1
v 0.5 13 -1
v 1.5 13 -1
v -1.5 13 -2
v 0.5 13 -2

# faces
f 6/5/1 4/5/1 3/5/1
f 7/5/1 4/5/1 6/5/1
f 7/5/1 6/5/1 5/5/1
f 8/5/1 2/5/1 1/5/1
f 9/5/1 7/5/1 5/5/1
f 9/5/1 8/5/1 7/5/1
f 10/5/1 2/5/1 8/5/1
f 10/5/1 8/5/1 9/5/1
f 11/3/1 10/3/1 9/3/1
f 12/3/1 10/3/1 11/3/1
f 13/3/1 10/3/1 12/3/1
f 14/3/1 10/3/1 13/3/1
f 15/3/1 13/3/1 12/3/1
f 16/3/1 13/3/1 15/3/1
f 21/5/1 20/5/1 19/5/1
f 22/5/1 20/5/1 21/5/1
f 25/5/1 18/5/1 17/5/1
f 26/5/1 18/5/1 25/5/1
f 27/5/1 24/5/1 23/5/1
f 28/5/1 24/5/1 27/5/1
f 33/3/1 32/3/1 31/3/1
f 34/3/1 32/3/1 33/3/1
f 35/3/1 30/3/1 29/3/1
f 36/3/1 30/3/1 35/3/1
f 41/1/1 38/1/1 37/1/1
f 42/1/1 38/1/1 41/1/1
f 43/1/1 40/1/1 39/1/1
f 44/1/1 40/1/1 43/1/1
f 45/2/1 42/2/1 41/2/1
f 46/2/1 44/2/1 43/2/1
f 47/2/1 45/2/1 41/2/1
f 47/2/1 46/2/1 45/2/1
f 48/2/1 44/2/1 46/2/1
f 48/2/1 46/2/1 47/2/1
f 51/5/1 50/5/1 49/5/1
f 52/5/1 50/5/1 51/5/1
f 57/5/1 54/5/1 53/5/1
f 58/5/1 54/5/1 57/5/1
f 59/5/1 56/5/1 55/5/1
f 60/5/1 56/5/1 59/5/1
f 63/3/1 62/3/1 61/3/1
f 64/3/1 62/3/1 63/3/1
f 69/5/1 66/5/1 65/5/1
f 70/5/1 66/5/1 69/5/1
f 71/5/1 68/5/1 67/5/1
f 72/5/1 68/5/1 71/5/1
f 78/5/1 74/5/1 73/5/1
f 79/5/1 74/5/1 78/5/1
f 80/5/1 76/5/1 75/5/1
f 81/5/1 76/5/1 80/5/1
f 82/5/1 78/5/1 77/5/1
f 83/5/1 78/5/1 82/5/1
f 86/4/1 85/4/1 84/4/1
f 87/4/1 85/4/1 86/4/1
f 90/3/1 89/3/1 88/3/1
f 91/3/1 89/3/1 90/3/1
f 94/5/2 95/5/2 96/5/2
f 96/5/2 95/5/2 97/5/2
f 92/5/2 93/5/2 98/5/2
f 98/5/2 93/5/2 99/5/2
f 100/5/2 101/5/2 102/5/2
f 102/5/2 101/5/2 103/5/2
f 104/1/2 105/1/2 108/1/2
f 108/1/2 105/1/2 109/1/2
f 106/1/2 107/1/2 110/1/2
f 110/1/2 107/1/2 111/1/2
f 108/2/2 109/2/2 112/2/2
f 110/2/2 111/2/2 113/2/2
f 108/2/2 112/2/2 114/2/2
f 112/2/2 113/2/2 114/2/2
f 113/2/2 111/2/2 115/2/2
f 114/2/2 113/2/2 115/2/2
f 116/5/2 117/5/2 120/5/2
f 120/5/2 117/5/2 121/5/2
f 118/5/2 119/5/2 124/5/2
f 124/5/2 119/5/2 125/5/2
f 121/5/2 122/5/2 126/5/2
f 126/5/2 122/5/2 127/5/2
f 123/5/2 124/5/2 128/5/2
f 128/5/2 124/5/2 129/5/2
f 130/3/2 131/3/2 132/3/2
f 132/3/2 131/3/2 133/3/2
f 134/3/2 135/3/2 136/3/2
f 136/3/2 135/3/2 137/3/2
f 138/5/2 139/5/2 142/5/2
f 142/5/2 139/5/2 143/5/2
f 138/5/2 142/5/2 144/5/2
f 144/5/2 142/5/2 145/5/2
f 140/5/2 141/5/2 147/5/2
f 147/5/2 141/5/2 148/5/2
f 145/5/2 146/5/2 150/5/2
f 149/5/2 150/5/2 151/5/2
f 150/5/2 146/5/2 152/5/2
f 151/5/2 150/5/2 152/5/2
f 153/3/2 154/3/2 157/3/2
f 157/3/2 154/3/2 158/3/2
f 155/3/2 156/3/2 159/3/2
f 159/3/2 156/3/2 160/3/2
f 161/5/2 162/5/2 166/5/2
f 163/5/2 164/5/2 168/5/2
f 165/5/2 166/5/2 169/5/2
f 166/5/2 162/5/2 169/5/2
f 167/5/2 168/5/2 170/5/2
f 168/5/2 164/5/2 171/5/2
f 170/5/2 168/5/2 171/5/2
f 171/5/2 164/5/2 172/5/2
f 165/5/2 169/5/2 174/5/2
f 169/5/2 170/5/2 174/5/2
f 174/5/2 170/5/2 175/5/2
f 175/5/2 170/5/2 176/5/2
f 172/5/2 173/5/2 177/5/2
f 171/5/2 172/5/2 177/5/2
f 174/5/2 175/5/2 178/5/2
f 178/5/2 175/5/2 179/5/2
f 171/5/2 177/5/2 180/5/2
f 180/5/2 177/5/2 181/5/2
f 178/5/2 179/5/2 182/5/2
f 179/5/2 180/5/2 182/5/2
f 180/5/2 181/5/2 182/5/2
f 182/5/2 181/5/2 183/5/2
f 183/5/2 181/5/2 184/5/2
f 184/5/2 181/5/2 185/5/2
f 183/5/2 184/5/2 186/5/2
f 186/5/2 184/5/2 187/5/2
f 186/3/2 187/3/2 188/3/2
f 188/3/2 187/3/2 189/3/2
f 189/3/2 187/3/2 190/3/2
f 190/3/2 187/3/2 191/3/2
f 188/4/2 189/4/2 192/4/2
f 189/3/2 190/3/2 193/3/2
f 192/4/2 189/4/2 193/4/2
f 190/4/2 191/4/2 194/4/2
f 193/3/2 190/3/2 194/3/2
f 194/4/2 191/4/2 195/4/2
f 192/3/2 193/3/2 196/3/2
f 193/3/2 194/3/2 196/3/2
f 194/3/2 195/3/2 196/3/2
f 196/3/2 195/3/2 197/3/2
f 197/3/2 195/3/2 198/3/2
f 198/3/2 195/3/2 199/3/2
f 197/3/2 198/3/2 200/3/2
f 200/3/2 198/3/2 201/3/2
f 202/3/2 203/3/2 206/3/2
f 206/3/2 203/3/2 207/3/2
f 204/3/2 205/3/2 208/3/2
f 208/3/2 205/3/2 209/3/2
f 212/5/3 211/5/3 210/5/3
f 213/5/3 211/5/3 212/5/3
f 214/5/3 212/5/3 210/5/3
f 215/5/3 212/5/3 214/5/3
f 216/3/3 215/3/3 214/3/3
f 217/3/3 215/3/3 216/3/3
f 220/5/3 219/5/3 218/5/3
f 221/5/3 219/5/3 220/5/3
f 222/5/3 219/5/3 221/5/3
f 223/5/3 219/5/3 222/5/3
f 225/5/3 222/5/3 221/5/3
f 227/5/3 219/5/3 223/5/3
f 228/5/3 219/5/3 227/5/3
f 230/5/3 225/5/3 224/5/3
f 231/5/3 230/5/3 229/5/3
f 232/5/3 222/5/3 225/5/3
f 232/5/3 230/5/3 231/5/3
f 232/5/3 225/5/3 230/5/3
f 233/5/3 227/5/3 226/5/3
f 234/5/3 227/5/3 233/5/3
f 238/5/3 236/5/3 235/5/3
f 239/3/3 237/3/3 236/3/3
f 239/5/3 236/5/3 238/5/3
f 240/3/3 237/3/3 239/3/3
f 246/1/3 243/1/3 242/1/3
f 247/2/3 244/2/3 243/2/3
f 247/1/3 243/1/3 246/1/3
f 248/3/3 245/3/3 244/3/3
f 248/2/3 244/2/3 247/2/3
f 249/3/3 245/3/3 248/3/3
f 250/3/3 245/3/3 249/3/3
f 252/3/3 241/3/3 240/3/3
f 252/3/3 240/3/3 239/3/3
f 254/5/3 249/5/3 248/5/3
f 255/5/3 249/5/3 254/5/3
f 256/3/3 241/3/3 252/3/3
f 257/3/3 241/3/3 256/3/3
f 258/3/3 241/3/3 257/3/3
f 259/3/3 241/3/3 258/3/3
f 260/5/3 254/5/3 253/5/3
f 261/5/3 254/5/3 260/5/3
f 262/5/3 252/5/3 251/5/3
f 263/3/3 256/3/3 252/3/3
f 263/5/3 252/5/3 262/5/3
f 264/4/3 257/4/3 256/4/3
f 264/3/3 256/3/3 263/3/3
f 265/3/3 258/3/3 257/3/3
f 265/4/3 257/4/3 264/4/3
f 266/3/3 258/3/3 265/3/3
f 271/5/3 268/5/3 267/5/3
f 272/5/3 268/5/3 271/5/3
f 273/3/3 270/3/3 269/3/3
f 274/3/3 270/3/3 273/3/3
f 277/3/3 276/3/3 275/3/3
f 278/3/3 276/3/3 277/3/3
f 283/3/3 280/3/3 279/3/3
f 284/3/3 280/3/3 283/3/3
f 285/5/3 282/5/3 281/5/3
f 286/5/3 282/5/3 285/5/3
f 289/5/3 288/5/3 287/5/3
f 290/5/3 288/5/3 289/5/3
f 291/5/3 288/5/3 290/5/3
f 295/1/3 293/1/3 292/1/3
f 296/2/3 294/2/3 293/2/3
f 296/1/3 293/1/3 295/1/3
f 297/2/3 294/2/3 296/2/3
f 303/5/3 300/5/3 299/5/3
f 303/5/3 299/5/3 298/5/3
f 304/5/3 300/5/3 303/5/3
f 305/5/3 302/5/3 301/5/3
f 306/5/3 302/5/3 305/5/3
f 309/3/3 308/3/3 307/3/3
f 310/3/3 308/3/3 309/3/3
f 311/3/4 312/3/4 313/3/4
f 313/3/4 312/3/4 314/3/4
f 315/1/4 316/1/4 318/1/4
f 316/2/4 317/2/4 319/2/4
f 318/1/4 316/1/4 319/1/4
f 319/2/4 317/2/4 320/2/4
f 321/3/4 322/3/4 328/3/4
f 328/3/4 322/3/4 329/3/4
f 323/5/4 324/5/4 330/5/4
f 324/5/4 325/5/4 330/5/4
f 330/5/4 325/5/4 331/5/4
f 326/5/4 327/5/4 332/5/4
f 332/5/4 327/5/4 333/5/4
f 334/5/4 335/5/4 336/5/4
f 336/5/4 335/5/4 337/5/4
f 337/5/4 335/5/4 338/5/4
f 339/5/4 340/5/4 341/5/4
f 341/5/4 340/5/4 342/5/4
f 343/3/4 344/3/4 345/3/4
f 345/3/4 344/3/4 346/3/4
f 346/3/4 344/3/4 347/3/4
f 347/3/4 344/3/4 348/3/4
f 349/3/4 350/3/4 351/3/4
f 351/3/4 350/3/4 352/3/4
f 353/3/4 354/3/4 355/3/4
f 355/3/4 354/3/4 356/3/4
f 357/5/4 358/5/4 360/5/4
f 360/5/4 358/5/4 361/5/4
f 361/5/4 358/5/4 362/5/4
f 358/3/4 359/3/4 363/3/4
f 362/5/4 358/5/4 363/5/4
f 363/3/4 359/3/4 364/3/4
f 361/5/4 362/5/4 368/5/4
f 368/5/4 362/5/4 369/5/4
f 369/5/4 362/5/4 370/5/4
f 364/3/4 365/3/4 371/3/4
f 363/3/4 364/3/4 371/3/4
f 366/1/4 367/1/4 373/1/4
f 367/2/4 368/2/4 374/2/4
f 373/1/4 367/1/4 374/1/4
f 368/3/4 369/3/4 375/3/4
f 374/2/4 368/2/4 375/2/4
f 375/3/4 369/3/4 376/3/4
f 371/3/4 372/3/4 378/3/4
f 363/3/4 371/3/4 378/3/4
f 378/3/4 372/3/4 379/3/4
f 379/3/4 372/3/4 380/3/4
f 378/3/4 379/3/4 384/3/4
f 380/3/4 372/3/4 385/3/4
f 385/3/4 372/3/4 386/3/4
f 386/3/4 372/3/4 387/3/4
f 382/5/4 383/5/4 388/5/4
f 381/5/4 382/5/4 388/5/4
f 388/5/4 383/5/4 389/5/4
f 377/5/4 378/5/4 390/5/4
f 378/3/4 384/3/4 391/3/4
f 390/5/4 378/5/4 391/5/4
f 384/4/4 385/4/4 392/4/4
f 391/3/4 384/3/4 392/3/4
f 385/3/4 386/3/4 393/3/4
f 392/4/4 385/4/4 393/4/4
f 393/3/4 386/3/4 394/3/4
f 395/5/4 396/5/4 398/5/4
f 398/5/4 396/5/4 399/5/4
f 399/5/4 396/5/4 400/5/4
f 397/5/4 398/5/4 402/5/4
f 398/5/4 399/5/4 402/5/4
f 400/5/4 396/5/4 404/5/4
f 404/5/4 396/5/4 405/5/4
f 401/5/4 402/5/4 406/5/4
f 402/5/4 399/5/4 407/5/4
f 406/5/4 402/5/4 407/5/4
f 407/5/4 399/5/4 408/5/4
f 408/5/4 399/5/4 409/5/4
f 403/5/4 404/5/4 410/5/4
f 410/5/4 404/5/4 411/5/4
f 412/5/4 413/5/4 414/5/4
f 414/5/4 413/5/4 415/5/4
f 412/5/4 414/5/4 416/5/4
f 416/5/4 414/5/4 417/5/4
f 416/3/4 417/3/4 418/3/4
f 418/3/4 417/3/4 419/3/4
f 422/1/5 421/1/5 420/1/5
f 423/1/5 421/1/5 422/1/5
f 426/1/5 425/1/5 424/1/5
f 427/1/5 425/1/5 426/1/5
f 430/5/5 429/5/5 428/5/5
f 431/5/5 429/5/5 430/5/5
f 438/5/5 433/5/5 432/5/5
f 439/5/5 433/5/5 438/5/5
f 440/5/5 435/5/5 434/5/5
f 441/5/5 435/5/5 440/5/5
f 442/2/5 437/2/5 436/2/5
f 443/2/5 437/2/5 442/2/5
f 446/5/5 445/5/5 444/5/5
f 447/5/5 445/5/5 446/5/5
f 453/5/5 449/5/5 448/5/5
f 454/5/5 449/5/5 453/5/5
f 456/5/5 451/5/5 450/5/5
f 457/5/5 451/5/5 456/5/5
f 458/5/5 454/5/5 453/5/5
f 458/5/5 453/5/5 452/5/5
f 459/5/5 454/5/5 458/5/5
f 460/5/5 456/5/5 455/5/5
f 461/5/5 454/5/5 459/5/5
f 462/5/5 454/5/5 461/5/5
f 463/5/5 460/5/5 455/5/5
f 464/5/5 454/5/5 462/5/5
f 465/5/5 454/5/5 464/5/5
f 466/5/5 463/5/5 455/5/5
f 467/5/5 463/5/5 466/5/5
f 468/5/5 467/5/5 466/5/5
f 469/5/5 467/5/5 468/5/5
f 472/5/5 471/5/5 470/5/5
f 473/5/5 471/5/5 472/5/5
f 476/5/5 475/5/5 474/5/5
f 477/5/5 475/5/5 476/5/5
f 480/5/5 479/5/5 478/5/5
f 481/5/5 479/5/5 480/5/5
f 484/5/5 483/5/5 482/5/5
f 485/5/5 483/5/5 484/5/5
f 490/5/5 487/5/5 486/5/5
f 491/5/5 487/5/5 490/5/5
f 492/5/5 489/5/5 488/5/5
f 493/5/5 489/5/5 492/5/5
f 498/5/5 495/5/5 494/5/5
f 499/5/5 495/5/5 498/5/5
f 500/5/5 497/5/5 496/5/5
f 501/5/5 497/5/5 500/5/5
f 505/5/5 503/5/5 502/5/5
f 506/3/5 504/3/5 503/3/5
f 506/5/5 503/5/5 505/5/5
f 507/3/5 504/3/5 506/3/5
f 511/5/5 509/5/5 508/5/5
f 512/3/5 510/3/5 509/3/5
f 512/5/5 509/5/5 511/5/5
f 513/3/5 510/3/5 512/3/5
f 516/5/5 515/5/5 514/5/5
f 517/5/5 515/5/5 516/5/5
f 520/3/5 519/3/5 518/3/5
f 521/3/5 519/3/5 520/3/5
f 522/5/6 523/5/6 524/5/6
f 524/5/6 523/5/6 525/5/6
f 526/5/6 527/5/6 528/5/6
f 528/5/6 527/5/6 529/5/6
f 530/5/6 531/5/6 533/5/6
f 531/3/6 532/3/6 534/3/6
f 533/5/6 531/5/6 534/5/6
f 534/3/6 532/3/6 535/3/6
f 536/5/6 537/5/6 539/5/6
f 537/3/6 538/3/6 540/3/6
f 539/5/6 537/5/6 540/5/6
f 540/3/6 538/3/6 541/3/6
f 542/5/6 543/5/6 544/5/6
f 544/5/6 543/5/6 545/5/6
f 545/5/6 546/5/6 547/5/6
f 547/5/6 546/5/6 548/5/6
f 549/5/6 550/5/6 552/5/6
f 552/5/6 550/5/6 553/5/6
f 551/5/6 552/5/6 554/5/6
f 554/5/6 552/5/6 555/5/6
f 556/5/6 557/5/6 558/5/6
f 558/5/6 557/5/6 559/5/6
f 560/5/6 561/5/6 562/5/6
f 562/5/6 561/5/6 563/5/6
f 564/3/6 565/3/6 566/3/6
f 566/3/6 565/3/6 567/3/6
f 568/3/6 569/3/6 570/3/6
f 570/3/6 569/3/6 571/3/6
f 572/3/6 573/3/6 574/3/6
f 574/3/6 573/3/6 575/3/6
f 576/3/6 577/3/6 579/3/6
f 579/3/6 577/3/6 580/3/6
f 578/3/6 579/3/6 581/3/6
f 581/3/6 579/3/6 582/3/6
f 583/3/6 584/3/6 587/3/6
f 587/3/6 584/3/6 588/3/6
f 585/3/6 586/3/6 589/3/6
f 589/3/6 586/3/6 590/3/6
f 591/3/6 592/3/6 594/3/6
f 594/3/6 592/3/6 595/3/6
f 595/3/6 592/3/6 596/3/6
f 593/3/6 594/3/6 598/3/6
f 594/3/6 595/3/6 598/3/6
f 596/3/6 597/3/6 599/3/6
f 593/3/6 598/3/6 600/3/6
f 598/3/6 599/3/6 600/3/6
f 600/3/6 599/3/6 601/3/6
f 599/3/6 597/3/6 602/3/6
f 601/3/6 599/3/6 602/3/6
f 602/3/6 597/3/6 603/3/6
f 601/3/6 602/3/6 604/3/6
f 604/3/6 602/3/6 605/3/6
